####
#
# OBJ File Generated by Meshlab
#
####
# Object domain00215.obj
#
# Vertices: 46
# Faces: 80
#
####
vn 0.011918 -0.999548 0.027607
v -117.622757 -252.062546 56.602573
vn 0.121526 0.653919 0.746741
v -119.235626 -248.969696 55.377625
vn 0.628487 -0.628574 -0.458147
v -116.694221 -254.617874 50.097309
vn -0.576992 0.577185 -0.577874
v -121.773552 -249.539093 50.090828
vn 0.653683 -0.121874 0.746890
v -116.128113 -252.078552 55.377777
vn 0.000432 -1.000000 -0.000044
v -115.015999 -252.078003 53.820004
vn 0.696037 -0.004080 -0.717994
v -119.235710 -256.474182 52.440090
vn -0.496163 -0.716020 0.491058
v -121.771561 -254.624222 54.783134
vn -0.999546 0.012007 -0.027640
v -119.220085 -250.465668 48.277462
vn -0.003116 -0.999995 0.000343
v -123.454994 -252.077988 53.820004
vn -0.658337 -0.029653 0.752139
v -122.343391 -252.080917 55.377369
vn -0.658500 0.029476 -0.752004
v -122.342804 -252.076202 49.502117
vn -0.096828 0.655553 -0.748916
v -119.235992 -248.970154 49.502392
vn 0.657932 0.048999 -0.751481
v -116.127930 -252.076736 49.502480
vn 0.999623 -0.011474 -0.024942
v -119.250824 -253.690384 48.277462
vn 0.054817 -0.657866 0.751137
v -119.233025 -255.186340 55.377495
vn 0.027791 0.999202 -0.028678
v -119.235497 -247.907043 52.439999
vn 0.999191 -0.028023 -0.028843
v -115.063988 -252.077972 52.439991
vn -0.029031 -0.658426 -0.752085
v -119.237427 -255.185669 49.502251
vn -0.011535 0.999640 0.024225
v -120.848045 -252.093353 56.602562
vn -0.628661 0.628403 0.458143
v -121.779488 -249.540359 54.782654
vn 0.496365 0.715878 -0.491062
v -116.697304 -249.533859 50.096886
vn 0.715762 0.496412 0.491183
v -116.696083 -249.538925 54.786816
vn 0.577431 -0.576949 0.577671
v -116.695053 -254.614212 54.789146
vn -0.999576 -0.000086 -0.029115
v -123.406990 -252.077972 52.439991
vn -1.000000 0.000717 -0.000208
v -119.235519 -247.858963 51.060001
vn 0.706764 0.706700 -0.032551
v -116.210739 -249.052643 52.440060
vn -0.715906 -0.496209 -0.491177
v -121.777679 -254.613998 50.093174
vn 0.703809 -0.703703 0.097238
v -116.210724 -255.102661 52.440029
vn -0.001593 -0.999999 0.000315
v -115.015999 -252.078018 51.060001
vn -0.005404 0.000820 -0.999985
v -123.631317 -252.077911 52.440113
vn -0.002121 0.999998 -0.000348
v -123.454994 -252.078018 51.060001
vn 0.696300 0.001222 -0.717750
v -119.235680 -247.681870 52.440125
vn -0.000049 -0.000028 1.000000
v -119.235664 -252.078033 56.738132
vn 0.999955 0.003804 0.008718
v -119.240616 -250.465622 56.602566
vn 0.000054 0.000082 -1.000000
v -119.235703 -252.078064 48.141800
vn -0.003864 -0.999965 -0.007457
v -120.848045 -252.072845 48.277458
vn -0.999968 -0.003892 0.006951
v -119.230331 -253.690323 56.602566
vn -0.697798 0.697907 -0.161256
v -122.260429 -249.052460 52.440002
vn 0.003942 0.999942 -0.009979
v -117.622742 -252.083069 48.277458
vn 0.000005 -0.942616 -0.333880
v -114.839241 -252.077866 52.440132
vn -0.706752 -0.706688 -0.033088
v -122.260498 -255.103043 52.440006
vn 0.999997 -0.002486 0.000176
v -119.235512 -256.296936 53.820004
vn 0.028611 -0.999155 -0.029512
v -119.235519 -256.248993 52.439999
vn -0.999997 -0.002347 -0.000445
v -119.235512 -256.296936 51.060001
vn 1.000000 -0.000334 -0.000164
v -119.235512 -247.858963 53.820004
# 46 vertices, 0 vertices normals

f 29//29 5//5 24//24
f 12//12 36//36 19//19
f 33//33 17//17 39//39
f 14//14 27//27 18//18
f 28//28 12//12 19//19
f 16//16 38//38 34//34
f 33//33 17//17 13//13
f 23//23 5//5 18//18
f 44//44 19//19 3//3
f 3//3 14//14 18//18
f 2//2 5//5 23//23
f 14//14 36//36 13//13
f 31//31 12//12 32//32
f 11//11 21//21 25//25
f 44//44 8//8 42//42
f 7//7 19//19 44//44
f 19//19 14//14 3//3
f 27//27 2//2 23//23
f 33//33 26//26 13//13
f 27//27 22//22 17//17
f 41//41 5//5 18//18
f 27//27 41//41 18//18
f 22//22 27//27 14//14
f 31//31 11//11 10//10
f 16//16 7//7 44//44
f 12//12 25//25 31//31
f 40//40 36//36 14//14
f 5//5 29//29 18//18
f 25//25 21//21 39//39
f 22//22 14//14 13//13
f 17//17 22//22 13//13
f 25//25 42//42 31//31
f 2//2 27//27 17//17
f 11//11 34//34 2//2
f 13//13 4//4 39//39
f 16//16 8//8 44//44
f 28//28 19//19 42//42
f 2//2 33//33 46//46
f 9//9 36//36 13//13
f 16//16 29//29 24//24
f 17//17 13//13 39//39
f 33//33 27//27 17//17
f 12//12 25//25 39//39
f 5//5 41//41 6//6
f 34//34 5//5 2//2
f 14//14 30//30 41//41
f 29//29 3//3 18//18
f 44//44 7//7 42//42
f 16//16 11//11 8//8
f 19//19 45//45 7//7
f 21//21 2//2 17//17
f 5//5 16//16 24//24
f 35//35 34//34 2//2
f 25//25 31//31 39//39
f 14//14 41//41 18//18
f 21//21 17//17 39//39
f 41//41 29//29 18//18
f 16//16 34//34 11//11
f 16//16 44//44 29//29
f 29//29 44//44 3//3
f 16//16 5//5 34//34
f 4//4 12//12 39//39
f 36//36 12//12 13//13
f 7//7 44//44 29//29
f 20//20 34//34 11//11
f 28//28 42//42 25//25
f 13//13 12//12 4//4
f 37//37 36//36 12//12
f 36//36 19//19 15//15
f 19//19 36//36 14//14
f 8//8 11//11 42//42
f 19//19 44//44 42//42
f 5//5 1//1 34//34
f 42//42 11//11 25//25
f 27//27 23//23 18//18
f 7//7 16//16 43//43
f 11//11 2//2 21//21
f 33//33 2//2 17//17
f 12//12 28//28 25//25
f 11//11 25//25 31//31
# 80 faces, 0 coords texture

# End of File