####
#
# OBJ File Generated by Meshlab
#
####
# Object domain00210.obj
#
# Vertices: 46
# Faces: 80
#
####
vn 0.011764 -0.999569 0.026902
v -117.161705 -91.544479 80.522568
vn 0.121597 0.653964 0.746690
v -118.774109 -88.452545 79.297516
vn 0.628499 -0.628555 -0.458156
v -116.233032 -94.099686 74.017357
vn -0.576925 0.577354 -0.577771
v -121.312317 -89.021530 74.010925
vn 0.655547 -0.096849 0.748918
v -115.666885 -91.559853 79.297653
vn -0.000017 -1.000000 -0.000002
v -114.555016 -91.559868 77.739998
vn 0.696403 -0.004573 -0.717637
v -118.774391 -95.955711 76.360046
vn -0.496093 -0.716028 0.491117
v -121.310310 -94.105896 78.703125
vn -0.999555 0.011882 -0.027360
v -118.758873 -89.947342 72.197418
vn -0.003183 -0.999995 0.000408
v -122.993004 -91.559868 77.739998
vn -0.658382 -0.029541 0.752104
v -121.882294 -91.562767 79.297310
vn -0.658529 0.029335 -0.751983
v -121.881729 -91.557556 73.422173
vn -0.048762 0.657906 -0.751520
v -118.774635 -88.452545 73.422401
vn 0.656926 0.074307 -0.750285
v -115.666451 -91.558708 73.422523
vn 0.999612 -0.011605 -0.025314
v -118.789619 -93.172470 72.197411
vn 0.054838 -0.657860 0.751142
v -118.771515 -94.667625 79.297432
vn 0.027763 0.999205 -0.028616
v -118.773994 -87.388680 76.360008
vn 0.999600 0.028282 0.000174
v -114.603020 -91.559868 76.360016
vn -0.029104 -0.658400 -0.752105
v -118.775955 -94.667336 73.422318
vn -0.011602 0.999637 0.024319
v -120.386818 -91.575218 80.522568
vn -0.628632 0.628435 0.458138
v -121.318222 -89.022697 78.702621
vn 0.496377 0.715846 -0.491095
v -116.236023 -89.016479 74.016960
vn 0.715746 0.496495 0.491122
v -116.234932 -89.021759 78.706757
vn 0.577412 -0.576869 0.577769
v -116.233894 -94.095932 78.709099
vn -0.999573 -0.000095 -0.029225
v -122.945000 -91.559860 76.360016
vn 1.000000 -0.000017 -0.000081
v -118.774490 -87.340698 74.979996
vn 0.706809 0.706663 -0.032389
v -115.749336 -88.535072 76.359947
vn -0.715934 -0.496177 -0.491169
v -121.316315 -94.095772 74.013214
vn 0.701249 -0.701056 0.129501
v -115.749413 -94.584724 76.359970
vn -0.001254 -0.999999 0.000155
v -114.555016 -91.559860 74.979996
vn -0.005452 0.000570 -0.999985
v -123.170067 -91.559868 76.360054
vn -0.002536 0.999997 -0.000325
v -122.993004 -91.559868 74.979996
vn 0.942557 0.000775 -0.334044
v -118.774376 -87.163803 76.360046
vn -0.000056 -0.000011 1.000000
v -118.774414 -91.559807 80.658310
vn 0.999952 0.003848 0.009011
v -118.779396 -89.947334 80.522568
vn 0.000070 0.000044 -1.000000
v -118.774330 -91.559837 72.061867
vn -0.003755 -0.999969 -0.006900
v -120.386818 -91.554718 72.197411
vn -0.999970 -0.003848 0.006658
v -118.769112 -93.172462 80.522568
vn -0.697807 0.697896 -0.161265
v -121.799164 -88.535149 76.359955
vn 0.004027 0.999942 -0.010027
v -117.161697 -91.564972 72.197411
vn -0.001338 -0.999999 0.000388
v -114.378082 -91.559868 76.360077
vn -0.706770 -0.706664 -0.033199
v -121.799240 -94.584694 76.359940
vn 0.999994 -0.003385 0.000505
v -118.774490 -95.779007 77.739998
vn 0.028515 -0.999160 -0.029417
v -118.774002 -95.730988 76.360008
vn -0.999999 -0.001501 -0.000126
v -118.774483 -95.779007 74.979996
vn 1.000000 0.000560 0.000155
v -118.774490 -87.340698 77.739998
# 46 vertices, 0 vertices normals

f 33//33 2//2 17//17
f 17//17 2//2 27//27
f 16//16 38//38 34//34
f 42//42 11//11 25//25
f 19//19 14//14 3//3
f 12//12 36//36 19//19
f 28//28 42//42 25//25
f 22//22 27//27 14//14
f 2//2 17//17 21//21
f 19//19 44//44 42//42
f 44//44 8//8 42//42
f 2//2 23//23 27//27
f 29//29 41//41 18//18
f 17//17 33//33 27//27
f 8//8 11//11 42//42
f 5//5 41//41 6//6
f 31//31 11//11 10//10
f 2//2 33//33 46//46
f 44//44 7//7 42//42
f 29//29 3//3 18//18
f 36//36 13//13 14//14
f 39//39 4//4 12//12
f 37//37 36//36 12//12
f 2//2 34//34 5//5
f 25//25 42//42 31//31
f 3//3 14//14 18//18
f 27//27 23//23 18//18
f 12//12 25//25 31//31
f 11//11 25//25 31//31
f 31//31 12//12 32//32
f 39//39 12//12 25//25
f 5//5 41//41 18//18
f 39//39 13//13 4//4
f 12//12 28//28 25//25
f 16//16 44//44 29//29
f 16//16 34//34 11//11
f 13//13 36//36 12//12
f 5//5 29//29 18//18
f 19//19 36//36 14//14
f 40//40 36//36 14//14
f 13//13 9//9 36//36
f 16//16 7//7 44//44
f 14//14 27//27 18//18
f 20//20 34//34 11//11
f 7//7 44//44 29//29
f 34//34 16//16 5//5
f 16//16 29//29 24//24
f 33//33 13//13 26//26
f 13//13 22//22 14//14
f 13//13 17//17 22//22
f 39//39 17//17 13//13
f 39//39 33//33 17//17
f 5//5 16//16 24//24
f 23//23 2//2 5//5
f 41//41 14//14 18//18
f 11//11 21//21 25//25
f 21//21 39//39 25//25
f 39//39 25//25 31//31
f 17//17 39//39 21//21
f 4//4 13//13 12//12
f 28//28 19//19 42//42
f 29//29 5//5 24//24
f 16//16 8//8 44//44
f 11//11 2//2 21//21
f 14//14 30//30 41//41
f 36//36 19//19 15//15
f 1//1 34//34 5//5
f 29//29 44//44 3//3
f 7//7 16//16 43//43
f 19//19 45//45 7//7
f 7//7 19//19 44//44
f 17//17 27//27 22//22
f 33//33 17//17 13//13
f 44//44 19//19 3//3
f 8//8 16//16 11//11
f 2//2 35//35 34//34
f 27//27 41//41 18//18
f 34//34 2//2 11//11
f 28//28 12//12 19//19
f 23//23 5//5 18//18
# 80 faces, 0 coords texture

# End of File