####
#
# OBJ File Generated by Meshlab
#
####
# Object domain00221.obj
#
# Vertices: 46
# Faces: 80
#
####
vn 0.011771 -0.999561 0.027200
v -113.932701 -127.983986 65.802589
vn 0.121599 0.653926 0.746722
v -115.545471 -124.891830 64.577690
vn 0.628475 -0.628602 -0.458125
v -113.004021 -130.538864 59.297344
vn -0.576980 0.577304 -0.577766
v -118.083382 -125.460945 59.290913
vn 0.655559 -0.096850 0.748907
v -112.437767 -127.999710 64.577835
vn 0.000093 -1.000000 -0.000071
v -111.326012 -127.999496 63.020008
vn 0.696830 -0.004090 0.717225
v -115.545151 -132.395279 61.639912
vn -0.496052 -0.716090 0.491068
v -118.081261 -130.544800 63.983028
vn -0.999572 0.011668 -0.026827
v -115.529984 -126.386650 57.477432
vn -0.003369 -0.999994 0.000361
v -119.764015 -127.999504 63.020008
vn -0.658394 -0.029543 0.752094
v -118.652908 -128.002686 64.577431
vn -0.657829 0.054810 -0.751170
v -118.652626 -127.997261 58.702278
vn -0.048764 0.657898 -0.751527
v -115.545410 -124.891571 58.702492
vn 0.656952 0.074299 -0.750263
v -112.437592 -127.998642 58.702629
vn 0.999610 -0.011772 -0.025323
v -115.560722 -129.612045 57.477432
vn 0.054831 -0.657922 0.751087
v -115.542747 -131.106613 64.577576
vn 0.027773 0.999182 0.029399
v -115.544991 -123.828033 61.640011
vn 0.999175 0.028290 0.029127
v -111.374016 -127.998993 61.640011
vn -0.029041 -0.658455 -0.752060
v -115.547295 -131.106781 58.702385
vn -0.011595 0.999645 0.023983
v -117.158066 -128.014740 65.802589
vn -0.628679 0.628383 0.458147
v -118.089211 -125.462120 63.982643
vn 0.496506 0.715784 -0.491055
v -113.007111 -125.456017 59.296944
vn 0.715717 0.496536 0.491123
v -113.005753 -125.461235 63.986755
vn 0.577310 -0.577001 0.577740
v -113.004723 -130.534927 63.989059
vn -0.999186 0.028106 0.028936
v -119.716042 -127.999001 61.640011
vn 1.000000 0.000526 -0.000322
v -115.545494 -123.780022 60.260006
vn 0.706775 0.706664 0.033098
v -112.520569 -124.974533 61.639980
vn -0.715973 -0.496187 -0.491102
v -118.087311 -130.534821 59.293186
vn 0.697910 -0.697795 0.161256
v -112.520416 -131.024017 61.639984
vn -0.001079 -0.999999 0.000221
v -111.326012 -127.999496 60.260006
vn -0.005589 0.696398 0.717634
v -119.941360 -127.999405 61.639881
vn -0.002567 0.999997 -0.000396
v -119.764015 -127.999496 60.260006
vn 0.942564 0.000683 0.334025
v -115.545143 -123.603180 61.639904
vn -0.000068 0.000051 1.000000
v -115.545029 -127.999283 65.938179
vn 0.999949 0.004170 0.009200
v -115.550507 -126.386665 65.802582
vn 0.000076 0.000012 -1.000000
v -115.545166 -127.999252 57.341743
vn -0.003694 -0.999969 -0.006975
v -117.158051 -127.994240 57.477436
vn -0.999974 -0.003520 0.006362
v -115.540215 -129.612030 65.802589
vn -0.703707 0.703798 -0.097281
v -118.570045 -124.974670 61.639980
vn 0.004064 0.999944 -0.009729
v -113.932701 -128.004486 57.477432
vn 0.001023 -0.660160 0.751124
v -111.149139 -127.999382 61.639877
vn -0.706776 -0.706691 0.032488
v -118.570053 -131.024017 61.639992
vn 0.999994 -0.003439 0.000691
v -115.545494 -132.218002 63.020008
vn 0.028596 -0.999179 0.028683
v -115.544998 -132.169983 61.640011
vn -0.999999 -0.001551 0.000050
v -115.545494 -132.218002 60.260006
vn 1.000000 0.000459 0.000313
v -115.545494 -123.780022 63.020008
# 46 vertices, 0 vertices normals

f 44//44 7//7 29//29
f 40//40 36//36 14//14
f 27//27 2//2 23//23
f 2//2 17//17 21//21
f 5//5 1//1 34//34
f 5//5 41//41 6//6
f 34//34 2//2 11//11
f 17//17 39//39 21//21
f 2//2 27//27 17//17
f 17//17 22//22 13//13
f 19//19 14//14 3//3
f 7//7 16//16 43//43
f 36//36 13//13 14//14
f 27//27 23//23 18//18
f 25//25 12//12 31//31
f 33//33 17//17 13//13
f 21//21 39//39 25//25
f 22//22 27//27 14//14
f 33//33 2//2 17//17
f 41//41 27//27 18//18
f 13//13 22//22 14//14
f 14//14 27//27 18//18
f 12//12 4//4 13//13
f 14//14 30//30 41//41
f 12//12 28//28 25//25
f 16//16 29//29 24//24
f 42//42 25//25 31//31
f 29//29 44//44 3//3
f 39//39 12//12 25//25
f 31//31 11//11 10//10
f 12//12 36//36 19//19
f 42//42 11//11 25//25
f 11//11 25//25 31//31
f 19//19 45//45 7//7
f 16//16 38//38 34//34
f 27//27 22//22 17//17
f 20//20 34//34 11//11
f 4//4 39//39 13//13
f 16//16 8//8 44//44
f 16//16 34//34 11//11
f 16//16 5//5 34//34
f 27//27 33//33 17//17
f 8//8 11//11 42//42
f 28//28 19//19 42//42
f 3//3 14//14 18//18
f 16//16 7//7 44//44
f 29//29 3//3 18//18
f 36//36 19//19 15//15
f 8//8 16//16 11//11
f 2//2 35//35 34//34
f 11//11 21//21 25//25
f 29//29 41//41 18//18
f 29//29 5//5 24//24
f 4//4 12//12 39//39
f 2//2 33//33 46//46
f 5//5 2//2 34//34
f 5//5 41//41 18//18
f 5//5 29//29 18//18
f 44//44 19//19 3//3
f 44//44 8//8 42//42
f 28//28 42//42 25//25
f 33//33 13//13 26//26
f 19//19 44//44 42//42
f 39//39 17//17 13//13
f 9//9 36//36 13//13
f 28//28 12//12 19//19
f 19//19 36//36 14//14
f 23//23 5//5 18//18
f 16//16 44//44 29//29
f 11//11 2//2 21//21
f 36//36 12//12 13//13
f 17//17 33//33 39//39
f 25//25 39//39 31//31
f 2//2 5//5 23//23
f 7//7 44//44 42//42
f 5//5 16//16 24//24
f 7//7 19//19 44//44
f 41//41 14//14 18//18
f 31//31 12//12 32//32
f 37//37 36//36 12//12
# 80 faces, 0 coords texture

# End of File