####
#
# OBJ File Generated by Meshlab
#
####
# Object domain00216.obj
#
# Vertices: 47
# Faces: 82
#
####
vn 0.084329 -0.978748 0.186924
v -119.450668 -271.341858 60.285393
vn 0.048818 0.657265 0.752077
v -121.080879 -268.343445 59.057777
vn 0.628387 -0.628570 -0.458290
v -118.539177 -273.989563 53.777363
vn -0.576920 0.577450 -0.577680
v -123.618378 -268.912292 53.770939
vn 0.696560 -0.096632 0.710962
v -117.972931 -271.449127 59.057056
vn -0.001241 -0.999999 -0.000004
v -116.860985 -271.450500 57.500000
vn -0.696875 -0.003231 -0.717185
v -121.080338 -275.846985 56.120075
vn -0.496190 -0.715931 0.491161
v -123.616196 -273.995728 58.463177
vn -0.999554 0.011835 -0.027414
v -121.065125 -269.838165 51.957428
vn 0.372382 -0.372226 0.850164
v -119.927002 -272.604004 60.153297
vn -0.003031 -0.999995 0.000499
v -125.300011 -271.450470 57.500000
vn -0.656834 -0.054693 0.752049
v -124.187965 -271.453064 59.057537
vn -0.658556 0.029453 -0.751955
v -124.187737 -271.447601 53.182194
vn -0.121870 0.653827 -0.746765
v -121.081024 -268.343475 53.182461
vn 0.657936 0.048992 -0.751479
v -117.972778 -271.449127 53.182583
vn 0.999621 -0.011632 -0.024940
v -121.095879 -273.063324 51.957428
vn 0.071153 -0.698165 0.712393
v -121.079247 -274.557251 59.056835
vn -0.028517 0.999185 -0.028579
v -121.080475 -267.279938 56.120007
vn 0.999606 -0.028058 0.000074
v -116.908958 -271.450989 56.119999
vn -0.054550 -0.657718 -0.751286
v -121.082703 -274.557343 53.182358
vn -0.006693 0.999802 0.018752
v -122.693260 -271.466034 60.282570
vn -0.628658 0.628470 0.458056
v -123.624130 -268.913544 58.462723
vn 0.496339 0.715922 -0.491022
v -118.542213 -268.907288 53.776932
vn 0.715707 0.496671 0.491000
v -118.540855 -268.912628 58.466877
vn 0.577157 -0.576863 0.578030
v -118.540047 -273.985657 58.468819
vn -0.999176 -0.028242 -0.029154
v -125.251976 -271.450989 56.119999
vn -1.000000 0.000408 0.000042
v -121.080505 -267.231964 54.739994
vn 0.706726 0.706745 -0.032404
v -118.055717 -268.426208 56.119900
vn -0.715847 -0.496230 -0.491243
v -123.622337 -273.985626 53.773251
vn 0.701158 -0.701119 0.129650
v -118.055595 -274.474915 56.119919
vn -0.001170 -0.999999 -0.000027
v -116.860985 -271.450470 54.739994
vn -0.005308 -0.696378 -0.717656
v -125.476654 -271.450623 56.120060
vn -0.002954 0.999996 -0.000268
v -125.300011 -271.450470 54.739994
vn -0.942646 0.000426 -0.333794
v -121.080376 -267.055328 56.120060
vn 0.009309 0.087718 0.996102
v -121.073753 -271.457611 60.411541
vn 0.999863 0.008477 0.014238
v -121.085648 -269.838135 60.282570
vn 0.000079 0.000040 -1.000000
v -121.080498 -271.450714 51.821770
vn -0.003697 -0.999974 -0.006155
v -122.693283 -271.445587 51.957420
vn 0.979667 -0.081802 0.183194
v -121.186111 -273.084290 60.286037
vn -0.697762 0.697958 -0.161191
v -124.105064 -268.426117 56.119911
vn 0.004056 0.999937 -0.010429
v -119.467705 -271.455841 51.957428
vn -0.000370 -1.000000 -0.000224
v -116.684090 -271.450714 56.120056
vn -0.706757 -0.706682 -0.033100
v -124.105148 -274.474945 56.119919
vn 0.999999 -0.001586 0.000325
v -121.080505 -275.669983 57.500000
vn -0.027775 -0.999182 -0.029385
v -121.080490 -275.622040 56.120007
vn -0.999997 -0.002235 -0.000176
v -121.080490 -275.669983 54.739994
vn -1.000000 0.000249 -0.000062
v -121.080505 -267.231964 57.500000
# 47 vertices, 0 vertices normals

f 30//30 3//3 19//19
f 14//14 37//37 13//13
f 24//24 2//2 5//5
f 5//5 35//35 10//10
f 37//37 14//14 15//15
f 40//40 4//4 13//13
f 20//20 37//37 15//15
f 20//20 15//15 3//3
f 7//7 17//17 44//44
f 26//26 12//12 32//32
f 17//17 8//8 45//45
f 37//37 20//20 16//16
f 34//34 14//14 18//18
f 22//22 40//40 26//26
f 8//8 12//12 43//43
f 7//7 45//45 30//30
f 45//45 8//8 43//43
f 17//17 45//45 30//30
f 2//2 18//18 22//22
f 14//14 18//18 23//23
f 13//13 29//29 26//26
f 29//29 20//20 43//43
f 28//28 24//24 19//19
f 5//5 30//30 19//19
f 15//15 31//31 42//42
f 32//32 13//13 33//33
f 35//35 17//17 10//10
f 18//18 28//28 23//23
f 45//45 20//20 3//3
f 45//45 7//7 43//43
f 1//1 35//35 5//5
f 32//32 12//12 11//11
f 21//21 35//35 12//12
f 17//17 5//5 10//10
f 12//12 22//22 26//26
f 20//20 45//45 43//43
f 12//12 2//2 22//22
f 34//34 18//18 2//2
f 23//23 28//28 15//15
f 30//30 5//5 25//25
f 18//18 40//40 22//22
f 18//18 34//34 28//28
f 14//14 23//23 15//15
f 24//24 5//5 19//19
f 7//7 17//17 45//45
f 13//13 37//37 20//20
f 15//15 42//42 19//19
f 29//29 13//13 20//20
f 43//43 12//12 26//26
f 28//28 42//42 19//19
f 20//20 7//7 45//45
f 14//14 4//4 40//40
f 14//14 34//34 27//27
f 29//29 43//43 26//26
f 26//26 43//43 32//32
f 40//40 34//34 18//18
f 40//40 13//13 26//26
f 2//2 36//36 35//35
f 40//40 26//26 32//32
f 5//5 17//17 25//25
f 14//14 9//9 37//37
f 17//17 35//35 39//39
f 42//42 5//5 19//19
f 17//17 30//30 25//25
f 35//35 2//2 12//12
f 2//2 35//35 5//5
f 38//38 37//37 13//13
f 30//30 45//45 3//3
f 41//41 37//37 15//15
f 3//3 15//15 19//19
f 20//20 46//46 7//7
f 4//4 14//14 13//13
f 15//15 28//28 19//19
f 35//35 12//12 17//17
f 34//34 2//2 47//47
f 2//2 24//24 28//28
f 30//30 42//42 19//19
f 14//14 40//40 18//18
f 5//5 42//42 6//6
f 12//12 8//8 17//17
f 18//18 2//2 28//28
f 13//13 26//26 32//32
# 82 faces, 0 coords texture

# End of File