####
#
# OBJ File Generated by Meshlab
#
####
# Object domain00203.obj
#
# Vertices: 51
# Faces: 102
#
####
vn -0.452501 0.884694 0.112072
v -121.771980 -111.326012 60.489998
vn 0.876122 0.480256 -0.042002
v -116.211014 -113.911758 60.401543
vn -0.808555 -0.383036 0.446679
v -124.540001 -117.021004 61.179996
vn -0.010595 0.489194 0.872111
v -120.369080 -112.443466 63.054588
vn 0.517529 -0.519785 -0.679697
v -118.151932 -117.957542 57.681252
vn -0.518031 0.520455 -0.678801
v -122.627037 -113.131027 57.684189
vn 0.805758 -0.387588 0.447806
v -116.237000 -117.021011 61.180000
vn 0.259341 -0.014689 0.965674
v -117.554436 -115.481049 63.082111
vn -0.467970 0.563010 0.681193
v -122.141388 -113.561981 63.790947
vn 0.860357 -0.004851 0.509669
v -116.138306 -115.540970 61.668972
vn 0.000239 -0.956431 -0.291959
v -120.383484 -119.963219 60.118420
vn -0.551008 -0.603032 0.576838
v -122.920387 -118.262108 62.439903
vn 0.054915 0.024135 0.998199
v -120.455734 -115.360939 62.893024
vn -0.000338 -0.000431 -1.000000
v -120.388542 -115.545258 56.161537
vn -0.865656 -0.001232 0.500637
v -124.639030 -115.533211 61.668987
vn 0.458449 0.878072 0.137163
v -119.004997 -111.326012 60.489990
vn -0.344574 0.018498 0.938577
v -123.226074 -115.612045 63.137478
vn -0.634573 0.052447 -0.771082
v -123.224876 -115.545929 57.272099
vn -0.068275 0.635038 -0.769457
v -120.387413 -112.610626 57.357246
vn 0.632786 -0.078730 -0.770314
v -117.552109 -115.546074 57.272434
vn 0.018835 -0.296836 0.954743
v -120.474785 -118.584694 62.907883
vn -0.000886 0.880929 -0.473248
v -120.421524 -111.416664 59.000477
vn 0.857448 -0.031094 -0.513631
v -116.367462 -115.527275 58.880001
vn 0.067356 -0.635219 -0.769389
v -120.387459 -118.480049 57.357265
vn 0.456404 -0.880117 0.130728
v -119.004997 -119.764015 60.489998
vn -0.777483 0.224052 0.587641
v -122.968719 -114.752342 63.735195
vn 0.275624 0.573362 0.771549
v -119.004990 -113.008011 63.690197
vn -0.560705 0.585300 0.585692
v -122.996651 -112.749046 62.349434
vn 0.447982 0.454935 -0.769640
v -118.155571 -113.137077 57.674480
vn 0.469295 0.514797 0.717458
v -117.847328 -112.809181 62.425507
vn 0.537431 -0.592057 0.600531
v -117.819489 -118.309952 62.297375
vn -0.857354 -0.030567 -0.513818
v -124.409477 -115.527290 58.880001
vn 0.654211 0.676760 -0.337644
v -117.480240 -112.470047 59.672123
vn -0.461782 -0.876275 0.137474
v -121.771980 -119.764015 60.489990
vn -0.448540 -0.456068 -0.768644
v -122.625366 -117.957649 57.680367
vn 0.653231 -0.673910 -0.345159
v -117.476997 -118.620804 59.680965
vn -0.881523 0.468745 -0.056522
v -124.565369 -113.915688 60.397991
vn -0.946512 -0.031451 -0.321132
v -124.680916 -115.553085 59.702065
vn 0.809210 0.382822 0.445675
v -116.237000 -114.068993 61.179996
vn 0.000208 0.956363 -0.292182
v -120.378448 -111.127274 60.118420
vn 0.879982 -0.472611 -0.047658
v -116.211655 -117.175186 60.386497
vn -0.082001 0.614542 0.784611
v -120.811401 -113.142761 63.732269
vn 0.000000 0.000000 0.000000
v -120.388786 -115.545296 55.923504
vn -0.654189 0.672808 -0.345493
v -123.297966 -112.467110 59.688488
vn 0.946858 -0.030817 -0.320173
v -116.096786 -115.548119 59.702053
vn -0.657449 -0.674911 -0.335048
v -123.296593 -118.623245 59.684818
vn 0.002450 -0.867157 0.498029
v -120.399956 -119.891724 61.329350
vn 0.000056 -0.880951 -0.473208
v -120.421501 -119.674057 59.000465
vn -0.818813 0.377272 0.432678
v -124.540001 -114.068993 61.180000
vn 0.003140 0.883613 0.468208
v -120.411377 -111.198547 61.329350
vn -0.875372 -0.482012 -0.037266
v -124.566017 -117.179138 60.389736
# 51 vertices, 0 vertices normals

f 33//33 40//40 16//16
f 28//28 37//37 49//49
f 11//11 48//48 36//36
f 46//46 48//48 11//11
f 28//28 17//17 26//26
f 33//33 22//22 40//40
f 12//12 47//47 21//21
f 46//46 11//11 34//34
f 51//51 3//3 15//15
f 9//9 4//4 28//28
f 10//10 31//31 7//7
f 10//10 2//2 39//39
f 21//21 47//47 31//31
f 30//30 16//16 50//50
f 30//30 4//4 42//42
f 46//46 18//18 35//35
f 9//9 28//28 26//26
f 20//20 23//23 45//45
f 16//16 40//40 50//50
f 8//8 13//13 21//21
f 15//15 28//28 49//49
f 13//13 30//30 4//4
f 20//20 23//23 36//36
f 38//38 44//44 32//32
f 4//4 9//9 42//42
f 30//30 33//33 16//16
f 36//36 45//45 41//41
f 47//47 11//11 25//25
f 50//50 40//40 1//1
f 40//40 44//44 1//1
f 12//12 34//34 47//47
f 15//15 12//12 17//17
f 38//38 51//51 15//15
f 44//44 38//38 37//37
f 31//31 41//41 7//7
f 34//34 11//11 47//47
f 17//17 13//13 4//4
f 6//6 19//19 18//18
f 8//8 21//21 31//31
f 30//30 50//50 4//4
f 11//11 36//36 25//25
f 14//14 20//20 24//24
f 44//44 37//37 28//28
f 30//30 27//27 42//42
f 2//2 33//33 30//30
f 20//20 29//29 33//33
f 1//1 44//44 28//28
f 37//37 15//15 49//49
f 46//46 38//38 32//32
f 44//44 6//6 18//18
f 2//2 30//30 39//39
f 23//23 45//45 36//36
f 46//46 12//12 51//51
f 44//44 18//18 32//32
f 17//17 12//12 21//21
f 44//44 22//22 19//19
f 30//30 8//8 10//10
f 4//4 50//50 28//28
f 37//37 38//38 15//15
f 45//45 23//23 33//33
f 36//36 31//31 25//25
f 30//30 10//10 39//39
f 14//14 29//29 20//20
f 14//14 19//19 29//29
f 18//18 46//46 32//32
f 12//12 46//46 34//34
f 17//17 4//4 28//28
f 10//10 8//8 31//31
f 41//41 45//45 10//10
f 15//15 17//17 28//28
f 24//24 5//5 36//36
f 31//31 47//47 25//25
f 14//14 24//24 35//35
f 38//38 46//46 51//51
f 36//36 41//41 31//31
f 50//50 1//1 28//28
f 48//48 24//24 36//36
f 13//13 17//17 21//21
f 44//44 19//19 6//6
f 18//18 14//14 35//35
f 23//23 20//20 33//33
f 19//19 22//22 33//33
f 51//51 12//12 3//3
f 17//17 9//9 28//28
f 8//8 30//30 13//13
f 45//45 2//2 10//10
f 4//4 28//28 42//42
f 41//41 10//10 7//7
f 27//27 30//30 4//4
f 24//24 46//46 35//35
f 48//48 46//46 24//24
f 5//5 20//20 36//36
f 2//2 45//45 33//33
f 29//29 19//19 33//33
f 28//28 9//9 42//42
f 3//3 12//12 15//15
f 27//27 4//4 42//42
f 17//17 9//9 26//26
f 20//20 5//5 24//24
f 22//22 44//44 40//40
f 19//19 14//14 18//18
f 18//18 38//38 32//32
# 102 faces, 0 coords texture

# End of File