####
#
# OBJ File Generated by Meshlab
#
####
# Object domain00202.obj
#
# Vertices: 46
# Faces: 80
#
####
vn 0.011727 -0.999563 0.027124
v -118.545700 -115.991127 71.322594
vn 0.048483 0.658044 0.751417
v -120.158424 -112.898888 70.097740
vn 0.628490 -0.628553 -0.458173
v -117.616760 -118.546295 64.817307
vn -0.576932 0.577339 -0.577780
v -122.696068 -113.467949 64.810890
vn 0.653727 -0.121847 0.746857
v -117.050514 -116.006821 70.097832
vn 0.000237 -1.000000 -0.000041
v -115.938988 -116.006493 68.539993
vn -0.697133 -0.003916 -0.716932
v -120.157913 -120.402702 67.160126
vn -0.496143 -0.715994 0.491116
v -122.693932 -118.552536 69.503151
vn -0.999556 0.011900 -0.027331
v -120.142632 -114.393738 62.997444
vn -0.003295 -0.999995 0.000328
v -124.376991 -116.006508 68.539993
vn -0.658386 -0.029611 0.752098
v -123.265656 -116.009659 70.097481
vn -0.658537 0.029413 -0.751973
v -123.265533 -116.004326 64.222214
vn -0.121889 0.653745 -0.746834
v -120.158333 -112.899063 64.222466
vn 0.657981 0.048961 -0.751441
v -117.050385 -116.005699 64.222542
vn 0.999621 -0.011565 -0.024990
v -120.173386 -117.619293 62.997444
vn 0.029454 -0.658536 0.751973
v -120.155624 -119.114159 70.097557
vn -0.028474 0.999187 -0.028555
v -120.158005 -111.834984 67.159981
vn 0.999188 -0.028057 -0.028916
v -115.987038 -116.006500 67.159988
vn -0.054498 -0.657701 -0.751305
v -120.160057 -119.114021 64.222305
vn -0.011633 0.999641 0.024148
v -121.770271 -116.021851 71.322594
vn -0.628713 0.628355 0.458138
v -122.701790 -113.469025 69.502739
vn 0.496435 0.715791 -0.491118
v -117.619896 -113.462898 64.816879
vn 0.715752 0.496498 0.491109
v -117.618507 -113.468018 69.506897
vn 0.577329 -0.576966 0.577755
v -117.617493 -118.542603 69.509201
vn -0.999576 -0.000101 -0.029127
v -124.329010 -116.006516 67.159988
vn -1.000000 0.000275 0.000009
v -120.158012 -111.786995 65.780014
vn 0.706814 0.706657 -0.032399
v -117.133247 -112.981606 67.159996
vn -0.715943 -0.496198 -0.491134
v -122.700089 -118.542397 64.813202
vn 0.703852 -0.703655 0.097275
v -117.133080 -119.031319 67.159966
vn -0.000975 -1.000000 0.000191
v -115.938988 -116.006485 65.780014
vn -0.005919 0.000379 -0.999982
v -124.553841 -116.006378 67.160103
vn -0.002554 0.999997 -0.000421
v -124.376991 -116.006508 65.780014
vn -0.942840 0.000506 -0.333245
v -120.157951 -111.610786 67.160133
vn -0.000068 -0.000010 1.000000
v -120.157997 -116.006363 71.458176
vn 0.999956 0.003873 0.008532
v -120.163086 -114.393715 71.322594
vn 0.000070 0.000063 -1.000000
v -120.158119 -116.006386 62.861702
vn -0.003715 -0.999969 -0.006971
v -121.770271 -116.001343 62.997444
vn -0.999970 -0.003741 0.006801
v -120.152885 -117.619301 71.322578
vn -0.697839 0.697877 -0.161213
v -123.182785 -112.981621 67.159981
vn 0.004065 0.999944 -0.009788
v -118.545700 -116.011612 62.997444
vn 0.000073 -0.942437 -0.334385
v -115.761917 -116.006393 67.160088
vn -0.706804 -0.706633 -0.033127
v -123.182831 -119.031433 67.159973
vn 0.999996 -0.002740 0.000423
v -120.158012 -120.225990 68.539993
vn -0.027747 -0.999184 -0.029360
v -120.157990 -120.177986 67.159988
vn -0.999998 -0.002136 -0.000207
v -120.158005 -120.225990 65.780014
vn -1.000000 0.000376 0.000004
v -120.158012 -111.786995 68.539993
# 46 vertices, 0 vertices normals

f 41//41 29//29 18//18
f 27//27 23//23 18//18
f 34//34 16//16 38//38
f 19//19 14//14 3//3
f 11//11 25//25 31//31
f 2//2 17//17 21//21
f 28//28 42//42 25//25
f 33//33 17//17 2//2
f 4//4 13//13 12//12
f 33//33 2//2 46//46
f 20//20 34//34 11//11
f 37//37 36//36 12//12
f 31//31 12//12 32//32
f 16//16 44//44 29//29
f 13//13 17//17 22//22
f 13//13 33//33 26//26
f 28//28 12//12 19//19
f 33//33 13//13 17//17
f 40//40 36//36 14//14
f 5//5 41//41 6//6
f 2//2 35//35 34//34
f 11//11 2//2 21//21
f 19//19 44//44 42//42
f 29//29 3//3 18//18
f 13//13 39//39 17//17
f 39//39 25//25 31//31
f 3//3 14//14 18//18
f 28//28 19//19 42//42
f 23//23 2//2 5//5
f 17//17 39//39 21//21
f 44//44 8//8 42//42
f 12//12 25//25 31//31
f 41//41 5//5 18//18
f 21//21 39//39 25//25
f 17//17 33//33 27//27
f 39//39 12//12 25//25
f 19//19 45//45 7//7
f 14//14 27//27 18//18
f 17//17 27//27 22//22
f 11//11 8//8 16//16
f 7//7 16//16 43//43
f 25//25 42//42 31//31
f 16//16 8//8 44//44
f 12//12 28//28 25//25
f 13//13 9//9 36//36
f 19//19 7//7 44//44
f 2//2 23//23 27//27
f 23//23 5//5 18//18
f 44//44 19//19 3//3
f 11//11 21//21 25//25
f 8//8 11//11 42//42
f 44//44 7//7 42//42
f 39//39 33//33 17//17
f 36//36 19//19 15//15
f 5//5 16//16 24//24
f 13//13 22//22 14//14
f 12//12 36//36 19//19
f 17//17 2//2 27//27
f 13//13 4//4 39//39
f 14//14 41//41 18//18
f 7//7 44//44 29//29
f 19//19 36//36 14//14
f 2//2 34//34 5//5
f 39//39 4//4 12//12
f 34//34 2//2 11//11
f 22//22 27//27 14//14
f 29//29 44//44 3//3
f 31//31 11//11 10//10
f 16//16 29//29 24//24
f 14//14 30//30 41//41
f 13//13 36//36 12//12
f 29//29 5//5 24//24
f 27//27 41//41 18//18
f 36//36 13//13 14//14
f 1//1 34//34 5//5
f 34//34 11//11 16//16
f 7//7 16//16 44//44
f 42//42 11//11 25//25
f 34//34 16//16 5//5
f 5//5 29//29 18//18
# 80 faces, 0 coords texture

# End of File