####
#
# OBJ File Generated by Meshlab
#
####
# Object domain00219.obj
#
# Vertices: 46
# Faces: 80
#
####
vn 0.011802 -0.999562 0.027137
v -117.161705 -64.791473 64.882553
vn 0.073768 0.657031 0.750245
v -118.774109 -61.699375 63.657696
vn 0.628493 -0.628562 -0.458155
v -116.233032 -67.346581 58.377407
vn -0.576942 0.577320 -0.577788
v -121.312317 -62.268433 58.370972
vn 0.655550 -0.096855 0.748915
v -115.666885 -64.807076 63.657791
vn 0.000269 -1.000000 0.000040
v -114.555016 -64.806839 62.099995
vn 0.696837 -0.004753 0.717213
v -118.774391 -69.202896 60.719910
vn -0.496042 -0.716050 0.491137
v -121.310310 -67.352783 63.062996
vn -0.999555 0.011884 -0.027362
v -118.758873 -63.194321 56.557442
vn -0.003486 -0.999994 0.000458
v -122.993004 -64.806839 62.099995
vn -0.658389 -0.029556 0.752098
v -121.882294 -64.809998 63.657413
vn -0.658531 0.029333 -0.751981
v -121.881729 -64.804665 57.782295
vn -0.096868 0.655587 -0.748881
v -118.774635 -61.699364 57.782536
vn 0.656934 0.074316 -0.750276
v -115.666451 -64.805893 57.782665
vn 0.999612 -0.011608 -0.025316
v -118.789619 -66.419464 56.557442
vn 0.054843 -0.657878 0.751125
v -118.771515 -67.914375 63.657562
vn 0.027771 0.999183 0.029373
v -118.773994 -60.635704 60.719997
vn 0.999174 0.028270 0.029184
v -114.603020 -64.806839 60.720005
vn -0.029089 -0.658414 -0.752093
v -118.775955 -67.914314 57.782417
vn -0.011567 0.999643 0.024092
v -120.386818 -64.822220 64.882568
vn -0.628651 0.628421 0.458131
v -121.318222 -62.269600 63.062614
vn 0.496405 0.715824 -0.491099
v -116.236023 -62.263477 58.377010
vn 0.715765 0.496470 0.491120
v -116.234932 -62.268604 63.066692
vn 0.577376 -0.576923 0.577751
v -116.233894 -67.342888 63.068970
vn -0.999584 -0.000102 0.028853
v -122.945000 -64.806847 60.720005
vn -1.000000 0.000017 0.000081
v -118.774490 -60.587704 59.340008
vn 0.706789 0.706649 0.033124
v -115.749336 -61.782059 60.719986
vn -0.715928 -0.496179 -0.491177
v -121.316315 -67.342659 58.373245
vn 0.697945 -0.697764 0.161237
v -115.749413 -67.831680 60.719997
vn -0.001028 -0.999999 0.000126
v -114.555016 -64.806839 59.340008
vn -0.006081 0.000004 0.999981
v -123.170067 -64.806854 60.719852
vn -0.002367 0.999997 -0.000293
v -122.993004 -64.806839 59.340008
vn -0.660460 0.001281 0.750860
v -118.774376 -60.410862 60.719872
vn -0.000059 -0.000017 1.000000
v -118.774414 -64.806831 65.018211
vn 0.999952 0.003847 0.009012
v -118.779396 -63.194313 64.882576
vn 0.000063 0.000051 -1.000000
v -118.774330 -64.806892 56.421741
vn -0.003795 -0.999968 -0.007029
v -120.386818 -64.801727 56.557449
vn -0.999970 -0.003848 0.006657
v -118.769112 -66.419472 64.882576
vn -0.703715 0.703792 -0.097271
v -121.799164 -61.782063 60.720005
vn 0.003977 0.999944 -0.009816
v -117.161697 -64.811974 56.557442
vn -0.000044 -0.659858 0.751390
v -114.378082 -64.806847 60.719868
vn -0.706787 -0.706685 0.032369
v -121.799240 -67.831787 60.720009
vn 0.999994 -0.003385 0.000506
v -118.774490 -69.026001 62.099995
vn 0.028560 -0.999183 0.028599
v -118.774002 -68.978020 60.720005
vn -0.999999 -0.001501 -0.000126
v -118.774483 -69.026001 59.340008
vn -1.000000 -0.000560 -0.000155
v -118.774490 -60.587704 62.099995
# 46 vertices, 0 vertices normals

f 3//3 14//14 18//18
f 16//16 44//44 29//29
f 12//12 28//28 25//25
f 17//17 27//27 22//22
f 33//33 17//17 27//27
f 39//39 12//12 25//25
f 31//31 11//11 10//10
f 33//33 39//39 17//17
f 36//36 19//19 15//15
f 13//13 33//33 26//26
f 44//44 19//19 3//3
f 14//14 30//30 41//41
f 34//34 2//2 11//11
f 29//29 41//41 18//18
f 19//19 36//36 14//14
f 11//11 25//25 31//31
f 41//41 14//14 18//18
f 11//11 21//21 25//25
f 13//13 22//22 14//14
f 42//42 11//11 25//25
f 41//41 27//27 18//18
f 1//1 34//34 5//5
f 2//2 23//23 27//27
f 2//2 35//35 34//34
f 13//13 39//39 17//17
f 34//34 16//16 38//38
f 12//12 36//36 19//19
f 17//17 39//39 21//21
f 44//44 8//8 42//42
f 13//13 33//33 17//17
f 11//11 8//8 16//16
f 42//42 25//25 31//31
f 7//7 44//44 42//42
f 13//13 9//9 36//36
f 2//2 34//34 5//5
f 31//31 12//12 32//32
f 23//23 2//2 5//5
f 28//28 19//19 42//42
f 22//22 27//27 14//14
f 28//28 42//42 25//25
f 11//11 2//2 21//21
f 13//13 36//36 12//12
f 13//13 17//17 22//22
f 21//21 39//39 25//25
f 28//28 12//12 19//19
f 37//37 36//36 12//12
f 23//23 5//5 18//18
f 4//4 13//13 12//12
f 19//19 14//14 3//3
f 17//17 2//2 27//27
f 27//27 23//23 18//18
f 36//36 13//13 14//14
f 25//25 39//39 31//31
f 29//29 5//5 24//24
f 34//34 16//16 5//5
f 34//34 11//11 16//16
f 16//16 29//29 24//24
f 29//29 44//44 3//3
f 16//16 7//7 44//44
f 33//33 2//2 46//46
f 5//5 41//41 18//18
f 2//2 17//17 21//21
f 7//7 16//16 43//43
f 14//14 27//27 18//18
f 29//29 3//3 18//18
f 16//16 8//8 44//44
f 19//19 45//45 7//7
f 5//5 41//41 6//6
f 20//20 34//34 11//11
f 17//17 33//33 2//2
f 13//13 4//4 39//39
f 8//8 11//11 42//42
f 39//39 4//4 12//12
f 44//44 7//7 29//29
f 5//5 29//29 18//18
f 40//40 36//36 14//14
f 7//7 19//19 44//44
f 12//12 25//25 31//31
f 5//5 16//16 24//24
f 19//19 44//44 42//42
# 80 faces, 0 coords texture

# End of File