####
#
# OBJ File Generated by Meshlab
#
####
# Object domain00213.obj
#
# Vertices: 46
# Faces: 80
#
####
vn 0.011400 -0.999593 0.026169
v -116.700195 -247.450043 70.862579
vn 0.121655 0.654012 0.746638
v -118.312958 -244.358627 69.637856
vn 0.628452 -0.628596 -0.458165
v -115.771690 -250.004410 64.357414
vn -0.576916 0.577446 -0.577689
v -120.850899 -244.927368 64.350960
vn 0.653736 -0.121908 0.746838
v -115.205696 -247.465057 69.637978
vn -0.001083 -0.999999 -0.000460
v -114.094002 -247.465546 68.080009
vn 0.696241 -0.003869 -0.717797
v -118.313171 -251.861420 66.700058
vn -0.496096 -0.716032 0.491108
v -120.848640 -250.010666 69.043190
vn -0.999548 0.011962 -0.027576
v -118.297615 -245.852600 62.537468
vn -0.002146 -0.999998 -0.000056
v -122.531990 -247.465546 68.080009
vn -0.658396 -0.029600 0.752090
v -121.420845 -247.468018 69.637573
vn -0.658558 0.029367 -0.751956
v -121.420494 -247.462738 63.762230
vn -0.096907 0.655646 -0.748824
v -118.313530 -244.358368 63.762486
vn 0.656910 0.074316 -0.750298
v -115.204948 -247.463898 63.762608
vn 0.999618 -0.011546 -0.025115
v -118.328384 -249.078033 62.537468
vn 0.054903 -0.657880 0.751119
v -118.310402 -250.572281 69.637741
vn 0.027808 0.999203 -0.028631
v -118.313019 -243.293961 66.700005
vn 0.999585 0.000076 -0.028816
v -114.141998 -247.465027 66.700005
vn -0.029102 -0.658418 -0.752089
v -118.314865 -250.572052 63.762356
vn -0.011988 0.999614 0.025082
v -119.925301 -247.480820 70.862579
vn -0.628614 0.628469 0.458117
v -120.856689 -244.928406 69.042702
vn 0.496345 0.715879 -0.491079
v -115.774551 -244.922485 64.356995
vn 0.715725 0.496590 0.491057
v -115.773613 -244.927536 69.046951
vn 0.577363 -0.576939 0.577749
v -115.772560 -250.000931 69.049202
vn -1.000000 -0.000104 -0.000159
v -122.483978 -247.464996 66.700005
vn -1.000000 0.000820 -0.000238
v -118.312988 -243.246017 65.320000
vn 0.706754 0.706722 -0.032311
v -115.287994 -244.441086 66.699883
vn -0.715902 -0.496222 -0.491171
v -120.854752 -250.000534 64.353294
vn 0.703829 -0.703682 0.097244
v -115.288155 -250.489777 66.699905
vn -0.002321 -0.999997 0.000607
v -114.094002 -247.465530 65.320000
vn -0.997804 0.055002 -0.036911
v -122.709061 -247.465088 66.700012
vn -0.003611 0.999993 -0.000784
v -122.531990 -247.465530 65.320000
vn 0.696589 0.000985 -0.717470
v -118.313171 -243.068924 66.700035
vn -0.000127 -0.000046 1.000000
v -118.313263 -247.464890 70.998184
vn 0.999955 0.003725 0.008730
v -118.318085 -245.852676 70.862587
vn 0.000128 0.000081 -1.000000
v -118.313164 -247.464905 62.401699
vn -0.003396 -0.999975 -0.006165
v -119.925301 -247.460266 62.537468
vn -0.999969 -0.003902 0.006809
v -118.307892 -249.078079 70.862587
vn -0.697783 0.697914 -0.161295
v -121.337753 -244.441177 66.699890
vn 0.004398 0.999932 -0.010786
v -116.700218 -247.470535 62.537468
vn -0.001400 -0.879646 -0.475627
v -113.917030 -247.465103 66.700050
vn -0.707152 -0.707061 -0.000425
v -121.337822 -250.489761 66.699883
vn 0.999996 -0.002622 0.000208
v -118.312996 -251.685043 68.080009
vn 0.028601 -0.999156 -0.029500
v -118.313019 -251.636047 66.700005
vn -0.999997 -0.002244 -0.000408
v -118.313004 -251.685043 65.320000
vn 1.000000 -0.000193 -0.000157
v -118.312988 -243.246017 68.080009
# 46 vertices, 0 vertices normals

f 34//34 11//11 16//16
f 40//40 36//36 14//14
f 18//18 27//27 41//41
f 11//11 25//25 31//31
f 20//20 34//34 11//11
f 33//33 17//17 13//13
f 24//24 29//29 5//5
f 44//44 19//19 3//3
f 34//34 16//16 5//5
f 27//27 18//18 14//14
f 16//16 24//24 5//5
f 42//42 44//44 8//8
f 35//35 34//34 2//2
f 27//27 17//17 2//2
f 39//39 33//33 17//17
f 2//2 5//5 23//23
f 14//14 18//18 3//3
f 28//28 42//42 25//25
f 34//34 16//16 38//38
f 17//17 22//22 13//13
f 17//17 21//21 2//2
f 19//19 14//14 3//3
f 44//44 7//7 19//19
f 29//29 44//44 3//3
f 21//21 11//11 2//2
f 11//11 8//8 16//16
f 42//42 11//11 25//25
f 11//11 10//10 31//31
f 12//12 28//28 25//25
f 12//12 25//25 31//31
f 42//42 25//25 31//31
f 8//8 44//44 16//16
f 4//4 39//39 13//13
f 14//14 30//30 41//41
f 33//33 26//26 13//13
f 7//7 44//44 29//29
f 34//34 5//5 2//2
f 37//37 36//36 12//12
f 7//7 16//16 43//43
f 21//21 39//39 25//25
f 11//11 42//42 8//8
f 19//19 36//36 14//14
f 29//29 24//24 16//16
f 14//14 18//18 41//41
f 7//7 44//44 16//16
f 27//27 2//2 23//23
f 33//33 46//46 2//2
f 44//44 7//7 42//42
f 39//39 17//17 13//13
f 12//12 4//4 13//13
f 44//44 29//29 16//16
f 1//1 34//34 5//5
f 5//5 18//18 41//41
f 7//7 19//19 45//45
f 27//27 22//22 17//17
f 14//14 36//36 13//13
f 44//44 42//42 19//19
f 11//11 34//34 2//2
f 28//28 12//12 19//19
f 22//22 14//14 13//13
f 5//5 29//29 18//18
f 31//31 12//12 32//32
f 18//18 27//27 23//23
f 39//39 12//12 25//25
f 39//39 21//21 17//17
f 36//36 12//12 13//13
f 42//42 28//28 19//19
f 5//5 41//41 6//6
f 39//39 25//25 31//31
f 18//18 29//29 3//3
f 22//22 27//27 14//14
f 12//12 39//39 4//4
f 15//15 36//36 19//19
f 33//33 27//27 17//17
f 5//5 18//18 23//23
f 29//29 18//18 41//41
f 9//9 36//36 13//13
f 12//12 36//36 19//19
f 17//17 33//33 2//2
f 11//11 21//21 25//25
# 80 faces, 0 coords texture

# End of File