####
#
# OBJ File Generated by Meshlab
#
####
# Object domain00205.obj
#
# Vertices: 46
# Faces: 80
#
####
vn -0.011847 0.027402 -0.999554
v -121.309311 -196.935150 57.745338
vn 0.001973 0.000260 -0.999998
v -115.477013 -199.725006 57.730007
vn -0.122160 0.744951 0.655839
v -119.697861 -198.163818 60.829132
vn 0.716022 -0.489823 -0.497379
v -117.150826 -203.457916 55.201092
vn -0.577371 0.576156 -0.578521
v -122.237183 -198.757782 55.196930
vn 0.702772 -0.096558 0.704832
v -116.671883 -201.109222 60.746536
vn 0.000038 -1.000000 -0.000086
v -119.696877 -205.419189 57.729980
vn -0.496059 -0.489455 0.717189
v -122.235275 -203.461731 60.262573
vn -0.999993 0.000749 -0.003677
v -119.696495 -199.725006 53.522297
vn -0.000079 0.028726 0.999587
v -119.696991 -201.108536 61.889782
vn 0.000086 0.028960 -0.999581
v -119.696976 -201.108536 53.570194
vn 0.011616 0.025169 0.999616
v -118.083984 -196.935150 57.714653
vn -0.705750 0.032291 0.707725
v -122.721771 -201.109207 60.746540
vn -0.697065 0.160331 -0.698853
v -122.721558 -201.109253 54.713463
vn -0.029542 0.750199 -0.660552
v -119.699402 -198.163635 54.630890
vn 0.705698 0.033009 -0.707743
v -116.672073 -201.109177 54.713463
vn 0.999997 -0.000042 -0.002406
v -119.696518 -202.492996 53.522297
vn 0.121950 -0.745023 0.655796
v -119.696411 -204.054443 60.829079
vn 0.999156 0.029427 0.028662
v -115.525993 -201.108536 57.730007
vn 0.029664 -0.750315 -0.660415
v -119.693916 -204.054138 54.630768
vn 0.003698 -0.006236 -0.999974
v -118.083977 -205.282394 57.735092
vn -0.715780 0.489810 0.497739
v -122.240356 -198.759857 60.261353
vn 0.495859 0.489519 -0.717283
v -117.160942 -198.756348 55.194935
vn 0.628235 0.456723 0.629861
v -117.156937 -198.760147 60.264343
vn 0.576912 -0.576222 0.578914
v -117.158676 -203.460495 60.265491
vn -0.999208 0.028492 0.027793
v -123.867989 -201.108505 57.730007
vn 0.999975 0.006144 -0.003476
v -119.701767 -196.935150 56.121838
vn 0.659385 0.751235 -0.029284
v -116.589447 -198.163635 57.728218
vn -0.003934 -0.009012 0.999952
v -121.309280 -205.282425 57.724869
vn -0.628088 -0.456697 -0.630026
v -122.233948 -203.457657 55.193192
vn 0.658938 -0.750170 0.055190
v -116.589180 -204.054077 57.732960
vn 0.000708 -0.000099 1.000000
v -123.916008 -199.725006 57.730003
vn -0.001644 0.715467 0.698644
v -124.092644 -201.109161 57.729992
vn -0.000090 1.000000 0.000076
v -119.697014 -196.798874 57.729965
vn 0.003219 -0.000402 0.999995
v -115.477013 -202.492996 57.730007
vn -0.999998 0.000466 0.001889
v -119.696495 -199.725006 61.937687
vn 0.000938 0.999991 0.004180
v -119.696808 -201.109131 62.113918
vn -0.001415 0.999964 -0.008368
v -119.696884 -201.109146 53.346050
vn 1.000000 0.000240 -0.000242
v -119.696518 -202.492996 61.937687
vn -0.658886 0.750638 -0.049113
v -122.804482 -198.164062 57.729370
vn 0.005427 0.715898 0.698184
v -115.300591 -201.109146 57.729996
vn -0.658074 -0.749306 0.074023
v -122.804314 -204.054459 57.730053
vn 0.999571 -0.026848 0.011673
v -119.711983 -205.282394 59.338196
vn -0.999625 -0.024682 -0.011826
v -119.681229 -205.282425 56.121838
vn -0.999936 0.010424 0.004318
v -119.691490 -196.935150 59.338188
vn 0.000031 -0.000007 -1.000000
v -123.916008 -202.492996 57.730007
# 46 vertices, 0 vertices normals

f 16//16 11//11 23//23
f 16//16 28//28 19//19
f 40//40 32//32 33//33
f 16//16 20//20 11//11
f 13//13 8//8 10//10
f 8//8 18//18 10//10
f 7//7 18//18 42//42
f 25//25 31//31 6//6
f 34//34 40//40 3//3
f 24//24 6//6 19//19
f 34//34 28//28 12//12
f 14//14 15//15 11//11
f 3//3 37//37 36//36
f 8//8 13//13 42//42
f 23//23 15//15 28//28
f 40//40 33//33 26//26
f 33//33 26//26 14//14
f 40//40 5//5 14//14
f 18//18 31//31 25//25
f 40//40 22//22 3//3
f 26//26 13//13 22//22
f 34//34 40//40 1//1
f 15//15 27//27 34//34
f 15//15 5//5 40//40
f 21//21 7//7 31//31
f 4//4 31//31 20//20
f 31//31 41//41 19//19
f 34//34 3//3 45//45
f 7//7 42//42 29//29
f 38//38 15//15 11//11
f 18//18 6//6 10//10
f 20//20 30//30 11//11
f 16//16 23//23 28//28
f 3//3 10//10 37//37
f 38//38 14//14 11//11
f 7//7 20//20 44//44
f 13//13 26//26 42//42
f 38//38 15//15 9//9
f 26//26 33//33 42//42
f 15//15 40//40 34//34
f 31//31 4//4 19//19
f 41//41 28//28 2//2
f 3//3 24//24 28//28
f 41//41 31//31 35//35
f 6//6 10//10 37//37
f 31//31 7//7 20//20
f 28//28 24//24 19//19
f 30//30 14//14 11//11
f 18//18 25//25 6//6
f 33//33 42//42 46//46
f 41//41 28//28 19//19
f 6//6 41//41 19//19
f 16//16 4//4 20//20
f 18//18 10//10 37//37
f 40//40 26//26 22//22
f 11//11 15//15 23//23
f 24//24 3//3 10//10
f 30//30 26//26 14//14
f 18//18 8//8 42//42
f 10//10 13//13 37//37
f 20//20 7//7 42//42
f 3//3 13//13 10//10
f 41//41 16//16 19//19
f 22//22 13//13 3//3
f 15//15 34//34 28//28
f 4//4 16//16 19//19
f 38//38 20//20 11//11
f 5//5 15//15 14//14
f 6//6 31//31 19//19
f 26//26 40//40 14//14
f 26//26 33//33 13//13
f 18//18 43//43 7//7
f 18//18 37//37 39//39
f 6//6 24//24 10//10
f 18//18 7//7 31//31
f 26//26 30//30 42//42
f 38//38 20//20 17//17
f 34//34 3//3 28//28
f 16//16 38//38 11//11
f 30//30 20//20 42//42
# 80 faces, 0 coords texture

# End of File