####
#
# OBJ File Generated by Meshlab
#
####
# Object domain00208.obj
#
# Vertices: 48
# Faces: 88
#
####
vn 0.069121 0.992969 0.096097
v -117.622742 -169.036041 74.082596
vn 0.032153 0.663754 0.747260
v -119.235497 -165.912170 72.812607
vn 0.266591 -0.713137 -0.648355
v -116.145569 -170.775177 68.258972
vn -0.596039 0.531246 -0.602092
v -121.773567 -166.513351 67.570801
vn 0.680196 0.024081 0.732635
v -116.125710 -169.022095 72.861702
vn 0.032775 0.999453 0.004462
v -115.015999 -169.051514 71.299995
vn -0.113799 -0.750987 -0.650437
v -119.036629 -170.204056 68.727310
vn 0.003127 -0.717737 -0.696307
v -119.301323 -173.160049 70.683945
vn -0.682237 -0.480089 0.551423
v -121.797752 -171.544724 72.288773
vn -0.998680 0.033348 -0.039067
v -119.235489 -167.394638 65.750153
vn -0.013185 -0.831864 -0.554822
v -119.208763 -169.564224 67.396751
vn -0.029542 0.999555 0.004117
v -123.454994 -169.051498 71.299995
vn -0.665715 0.023646 0.745831
v -122.345787 -169.025146 72.861305
vn -0.670704 -0.006359 -0.741698
v -122.172836 -169.124252 67.100555
vn -0.068740 0.677426 -0.732372
v -119.235947 -165.912003 67.027466
vn 0.672003 -0.086875 -0.735435
v -116.327995 -169.129761 67.142448
vn 0.008450 -0.502999 0.864246
v -119.234375 -172.019150 73.040138
vn 0.027084 0.999633 0.000406
v -119.235466 -164.822083 69.919937
vn 0.999217 0.033900 0.020418
v -115.063988 -169.050995 69.919991
vn 0.118556 -0.657927 -0.743691
v -120.389000 -170.302002 68.540001
vn 0.117365 -0.733061 -0.669960
v -117.620979 -173.083496 70.609993
vn -0.091408 0.985105 0.145649
v -120.848045 -169.066742 74.082603
vn -0.630433 0.626797 0.457908
v -121.779465 -166.514465 72.262665
vn 0.518625 0.682287 -0.515280
v -116.697304 -166.508240 67.576775
vn 0.715032 0.500087 0.488512
v -116.696075 -166.513504 72.266777
vn 0.621114 -0.525957 0.581022
v -116.671082 -171.538361 72.292496
vn -0.998508 0.052236 -0.015935
v -123.406990 -169.051010 69.919991
vn -0.292859 -0.816314 0.497861
v -120.849991 -173.050018 71.299995
vn 0.718050 0.695336 -0.030197
v -116.210739 -166.026978 69.920074
vn -0.602721 -0.784027 -0.148421
v -121.003677 -173.075272 70.558884
vn -0.380276 -0.652769 -0.655197
v -122.188293 -170.906235 68.109016
vn 0.782145 -0.617504 -0.083297
v -116.359497 -171.680344 69.851913
vn 0.068594 -0.997608 -0.008529
v -115.015999 -169.051498 68.539993
vn 0.581155 -0.735808 0.347628
v -117.620995 -173.050003 71.299995
vn -0.080652 0.618891 -0.781325
v -123.631310 -169.051025 69.919998
vn -0.065624 -0.997812 -0.008031
v -123.454994 -169.051514 68.539993
vn 1.000000 0.000797 -0.000078
v -119.235641 -164.601852 69.919945
vn -0.061452 0.232078 0.970754
v -119.233887 -168.937012 74.218193
vn -0.999719 0.009555 0.021707
v -119.221931 -167.394623 74.089882
vn -0.099579 0.118971 -0.987892
v -119.266624 -168.399246 65.688522
vn -0.066491 -0.825384 -0.560643
v -120.844742 -168.866165 65.767006
vn 0.565553 -0.294524 0.770328
v -119.251953 -170.590744 74.078163
vn -0.708354 0.687190 -0.161256
v -122.260422 -166.026993 69.920074
vn -0.041961 -0.924217 -0.379556
v -117.634598 -168.738449 65.773010
vn 0.445564 -0.858688 -0.253233
v -114.839302 -169.051147 69.919983
vn -0.741539 -0.638488 -0.206040
v -122.103539 -171.809464 69.837341
vn 0.118004 -0.853213 0.508039
v -119.235435 -173.156006 71.536362
vn 0.028380 -0.670360 -0.741493
v -119.237946 -171.623428 69.779388
# 48 vertices, 0 vertices normals

f 43//43 14//14 27//27
f 48//48 7//7 3//3
f 2//2 38//38 39//39
f 46//46 48//48 8//8
f 17//17 47//47 26//26
f 17//17 9//9 28//28
f 15//15 18//18 24//24
f 14//14 11//11 20//20
f 48//48 32//32 21//21
f 13//13 35//35 12//12
f 16//16 33//33 45//45
f 41//41 40//40 11//11
f 42//42 17//17 5//5
f 32//32 34//34 21//21
f 24//24 29//29 16//16
f 9//9 30//30 28//28
f 4//4 15//15 14//14
f 9//9 46//46 30//30
f 48//48 31//31 20//20
f 17//17 38//38 42//42
f 16//16 45//45 19//19
f 26//26 47//47 34//34
f 15//15 10//10 40//40
f 15//15 24//24 16//16
f 13//13 2//2 23//23
f 46//46 8//8 30//30
f 46//46 35//35 27//27
f 11//11 48//48 20//20
f 2//2 25//25 29//29
f 8//8 48//48 21//21
f 34//34 47//47 21//21
f 5//5 32//32 19//19
f 35//35 13//13 27//27
f 29//29 45//45 19//19
f 15//15 43//43 18//18
f 14//14 35//35 27//27
f 15//15 4//4 43//43
f 11//11 16//16 3//3
f 31//31 14//14 20//20
f 47//47 17//17 28//28
f 15//15 40//40 14//14
f 9//9 13//13 46//46
f 14//14 31//31 27//27
f 32//32 3//3 19//19
f 3//3 16//16 19//19
f 13//13 9//9 17//17
f 13//13 38//38 2//2
f 36//36 14//14 35//35
f 18//18 2//2 29//29
f 35//35 43//43 27//27
f 46//46 31//31 48//48
f 40//40 41//41 14//14
f 18//18 15//15 37//37
f 18//18 29//29 24//24
f 11//11 44//44 16//16
f 18//18 37//37 2//2
f 29//29 25//25 19//19
f 31//31 46//46 27//27
f 7//7 11//11 3//3
f 45//45 5//5 6//6
f 5//5 45//45 19//19
f 23//23 43//43 27//27
f 43//43 4//4 14//14
f 47//47 8//8 21//21
f 48//48 3//3 32//32
f 32//32 45//45 19//19
f 2//2 18//18 23//23
f 16//16 29//29 19//19
f 5//5 26//26 32//32
f 40//40 44//44 16//16
f 30//30 8//8 28//28
f 46//46 13//13 27//27
f 8//8 47//47 28//28
f 40//40 15//15 16//16
f 13//13 23//23 27//27
f 25//25 2//2 5//5
f 2//2 38//38 5//5
f 48//48 11//11 7//7
f 25//25 5//5 19//19
f 38//38 42//42 5//5
f 11//11 40//40 44//44
f 5//5 17//17 26//26
f 38//38 1//1 5//5
f 18//18 43//43 23//23
f 26//26 34//34 32//32
f 38//38 13//13 17//17
f 22//22 38//38 13//13
f 14//14 41//41 11//11
# 88 faces, 0 coords texture

# End of File