####
#
# OBJ File Generated by Meshlab
#
####
# Object domain00217.obj
#
# Vertices: 46
# Faces: 80
#
####
vn 0.011802 -0.999544 0.027806
v -115.316711 -265.439026 90.182533
vn 0.048424 0.658052 0.751414
v -116.929153 -262.347504 88.957474
vn 0.628494 -0.628608 -0.458091
v -114.387726 -267.994720 83.677391
vn -0.577070 0.577240 -0.577741
v -119.467041 -262.916382 83.670990
vn 0.653755 -0.121850 0.746831
v -113.821327 -265.455444 88.957626
vn 0.000744 -1.000000 -0.000037
v -112.709999 -265.454559 87.400017
vn 0.697003 -0.003628 0.717059
v -116.929008 -269.850281 86.019867
vn -0.496073 -0.716040 0.491120
v -119.464722 -268.000824 88.363121
vn -0.999554 0.011737 -0.027446
v -116.913658 -263.841675 81.857407
vn -0.004019 -0.999992 0.000360
v -121.147987 -265.454559 87.400017
vn -0.658409 -0.029583 0.752079
v -120.036560 -265.458466 88.957237
vn -0.658492 0.029340 -0.752015
v -120.036873 -265.453003 83.082283
vn -0.096856 0.655551 -0.748913
v -116.929741 -262.346588 83.082481
vn 0.657986 0.048974 -0.751436
v -113.821396 -265.454498 83.082550
vn 0.999614 -0.011732 -0.025169
v -116.944389 -267.067352 81.857407
vn 0.054847 -0.657855 0.751145
v -116.926620 -268.562256 88.957405
vn -0.000378 0.999563 0.029564
v -116.929008 -261.283051 86.019974
vn 0.999182 -0.028049 0.029138
v -112.758034 -265.454468 86.019974
vn -0.029172 -0.658397 -0.752105
v -116.931091 -268.562225 83.082336
vn -0.011646 0.999655 0.023520
v -118.541763 -265.469879 90.182526
vn -0.628645 0.628297 0.458311
v -119.472710 -262.918091 88.362633
vn 0.496520 0.715729 -0.491121
v -114.390823 -262.911560 83.676956
vn 0.715722 0.496484 0.491168
v -114.389626 -262.916992 88.366768
vn 0.577284 -0.577043 0.577723
v -114.388618 -267.990906 88.369102
vn -1.000000 -0.000144 -0.000044
v -121.100006 -265.454437 86.019974
vn -1.000000 0.000775 -0.000083
v -116.929008 -261.234924 84.640007
vn 0.706822 0.706610 0.033227
v -113.904198 -262.429810 86.020004
vn -0.715961 -0.496246 -0.491060
v -119.471024 -267.990601 83.673279
vn 0.697940 -0.697782 0.161184
v -113.904213 -268.479401 86.020050
vn -0.000222 -1.000000 0.000139
v -112.709999 -265.454529 84.640007
vn -0.991448 -0.124119 0.040313
v -121.324837 -265.454346 86.019936
vn -0.001901 0.999998 -0.000376
v -121.147987 -265.454529 84.640007
vn -0.879428 0.000608 0.476032
v -116.928986 -261.057770 86.019875
vn -0.000069 0.000036 1.000000
v -116.928947 -265.454285 90.318344
vn 0.999953 0.003932 0.008825
v -116.934090 -263.841614 90.182518
vn 0.000069 0.000012 -1.000000
v -116.928871 -265.454285 81.721848
vn -0.003695 -0.999965 -0.007500
v -118.541763 -265.449341 81.857407
vn -0.999970 -0.003698 0.006736
v -116.923897 -267.067352 90.182526
vn -0.701170 0.701164 -0.129344
v -119.954109 -262.429993 86.020004
vn 0.004060 0.999950 -0.009115
v -115.316719 -265.459595 81.857391
vn 0.000350 -0.942487 0.334243
v -112.533028 -265.454376 86.019936
vn -0.706812 -0.706661 0.032345
v -119.954071 -268.479523 86.020042
vn 0.999996 -0.002616 0.000334
v -116.929008 -269.674042 87.400017
vn 0.028486 -0.999187 0.028529
v -116.929001 -269.626007 86.019974
vn -0.999997 -0.002282 -0.000291
v -116.929008 -269.674042 84.640007
vn -1.000000 0.000131 0.000000
v -116.929008 -261.234924 87.400017
# 46 vertices, 0 vertices normals

f 17//17 2//2 27//27
f 12//12 13//13 36//36
f 4//4 12//12 39//39
f 17//17 13//13 39//39
f 41//41 18//18 29//29
f 19//19 12//12 36//36
f 25//25 31//31 39//39
f 11//11 25//25 31//31
f 2//2 34//34 5//5
f 29//29 18//18 5//5
f 2//2 17//17 21//21
f 33//33 17//17 2//2
f 25//25 31//31 12//12
f 19//19 45//45 7//7
f 13//13 12//12 4//4
f 29//29 5//5 24//24
f 8//8 11//11 42//42
f 32//32 31//31 12//12
f 41//41 6//6 5//5
f 36//36 13//13 14//14
f 36//36 13//13 9//9
f 44//44 8//8 42//42
f 5//5 16//16 24//24
f 19//19 14//14 3//3
f 34//34 16//16 38//38
f 18//18 29//29 3//3
f 44//44 29//29 16//16
f 41//41 18//18 14//14
f 22//22 27//27 14//14
f 21//21 17//17 39//39
f 34//34 11//11 16//16
f 36//36 19//19 15//15
f 25//25 21//21 39//39
f 2//2 23//23 27//27
f 8//8 44//44 16//16
f 11//11 2//2 21//21
f 25//25 12//12 28//28
f 34//34 16//16 5//5
f 17//17 33//33 39//39
f 28//28 12//12 19//19
f 23//23 18//18 27//27
f 33//33 17//17 27//27
f 44//44 7//7 29//29
f 26//26 13//13 33//33
f 7//7 44//44 42//42
f 25//25 31//31 42//42
f 11//11 34//34 2//2
f 33//33 2//2 46//46
f 12//12 25//25 39//39
f 31//31 11//11 10//10
f 13//13 33//33 17//17
f 30//30 41//41 14//14
f 13//13 22//22 14//14
f 11//11 25//25 42//42
f 13//13 4//4 39//39
f 25//25 11//11 21//21
f 7//7 44//44 16//16
f 16//16 29//29 24//24
f 35//35 34//34 2//2
f 23//23 2//2 5//5
f 19//19 36//36 14//14
f 18//18 41//41 27//27
f 17//17 27//27 22//22
f 13//13 17//17 22//22
f 43//43 7//7 16//16
f 28//28 19//19 42//42
f 12//12 37//37 36//36
f 11//11 8//8 16//16
f 14//14 18//18 3//3
f 18//18 41//41 5//5
f 25//25 28//28 42//42
f 20//20 34//34 11//11
f 19//19 44//44 42//42
f 29//29 44//44 3//3
f 18//18 23//23 5//5
f 27//27 18//18 14//14
f 44//44 19//19 3//3
f 1//1 34//34 5//5
f 7//7 19//19 44//44
f 40//40 36//36 14//14
# 80 faces, 0 coords texture

# End of File